<svg xmlns="http://www.w3.org/2000/svg" xmlns:xlink="http://www.w3.org/1999/xlink" width="500" zoomAndPan="magnify" viewBox="0 0 375 374.999991" height="500" preserveAspectRatio="xMidYMid meet" version="1.0"><defs><clipPath id="f18021f9b5"><path d="M 5 18 L 370 18 L 370 357.722656 L 5 357.722656 Z M 5 18 " clip-rule="nonzero"/></clipPath></defs><g clip-path="url(#f18021f9b5)"><path fill="#a5d6a7" d="M 362.363281 157.152344 L 199.066406 22.761719 C 192.347656 17.234375 182.652344 17.234375 175.929688 22.761719 L 12.632812 157.152344 C -0.558594 168.007812 7.117188 189.414062 24.203125 189.414062 L 39.367188 189.414062 L 39.367188 342.886719 C 39.367188 351.113281 46.035156 357.78125 54.257812 357.78125 L 320.738281 357.78125 C 328.960938 357.78125 335.628906 351.113281 335.628906 342.886719 L 335.628906 189.414062 L 350.796875 189.414062 C 367.878906 189.414062 375.554688 168.007812 362.363281 157.152344 Z M 212.582031 131.21875 C 221.539062 128.171875 229.019531 135.875 233.015625 143.269531 C 237.820312 152.15625 238.949219 163.785156 237.15625 173.527344 C 236.953125 174.632812 236.683594 175.734375 236.351562 176.8125 C 234.636719 182.34375 231.214844 187.367188 226.101562 189.816406 C 221.703125 191.921875 216.417969 191.910156 211.761719 190.21875 C 204.535156 187.585938 197.625 180.652344 195.660156 173.046875 C 192.261719 159.855469 198.480469 136.015625 212.582031 131.21875 Z M 144.660156 142.707031 C 148.734375 135.355469 156.292969 127.730469 165.21875 130.871094 C 179.273438 135.8125 185.242188 159.714844 181.707031 172.871094 C 179.664062 180.457031 172.683594 187.320312 165.429688 189.875 C 160.757812 191.519531 155.472656 191.476562 151.09375 189.324219 C 146.007812 186.820312 142.636719 181.765625 140.980469 176.214844 C 140.65625 175.132812 140.398438 174.027344 140.207031 172.921875 C 138.515625 163.160156 139.765625 151.542969 144.660156 142.707031 Z M 106.691406 235.132812 C 101.601562 232.179688 99.023438 226.265625 97.65625 220.539062 C 96.273438 214.75 95.789062 208.75 96.222656 202.8125 C 96.601562 197.667969 97.738281 192.410156 100.757812 188.226562 C 103.503906 184.417969 108.148438 181.488281 112.976562 181.960938 C 115.855469 182.242188 118.515625 183.695312 120.710938 185.578125 C 129.863281 193.429688 138.175781 207.316406 137.140625 219.6875 C 137.140625 219.699219 137.140625 219.714844 137.136719 219.730469 C 136.011719 232.902344 118.132812 241.773438 106.691406 235.132812 Z M 244.804688 284.953125 C 241.253906 293.707031 232.5625 300.238281 223.207031 301.472656 C 217.542969 302.21875 212.109375 301.25 206.753906 299.722656 C 200.339844 297.894531 193.75 296.980469 187.152344 296.980469 C 180.550781 296.980469 173.960938 297.894531 167.546875 299.722656 C 162.191406 301.25 156.757812 302.21875 151.09375 301.472656 C 141.738281 300.238281 133.046875 293.707031 129.496094 284.953125 C 126.21875 276.867188 127.324219 267.152344 132.335938 260.011719 C 140.199219 248.808594 154.230469 244.363281 160.785156 231.773438 C 166.78125 220.257812 171.261719 204.351562 187.152344 204.351562 C 203.039062 204.351562 207.519531 220.257812 213.519531 231.773438 C 220.074219 244.363281 234.101562 248.808594 241.964844 260.011719 C 246.976562 267.152344 248.082031 276.867188 244.804688 284.953125 Z M 276.359375 224.273438 C 274.625 229.898438 271.675781 235.632812 266.40625 238.253906 C 254.5625 244.148438 237.289062 234.148438 237.011719 220.929688 C 237.011719 220.914062 237.007812 220.902344 237.007812 220.886719 C 236.769531 208.476562 245.957031 195.152344 255.59375 187.90625 C 257.90625 186.167969 260.65625 184.886719 263.546875 184.789062 C 268.394531 184.628906 272.839844 187.851562 275.335938 191.824219 C 278.082031 196.195312 278.878906 201.515625 278.925781 206.675781 C 278.976562 212.625 278.109375 218.585938 276.359375 224.273438 Z M 276.359375 224.273438 " fill-opacity="1" fill-rule="nonzero"/></g></svg>