<svg xmlns="http://www.w3.org/2000/svg" xmlns:xlink="http://www.w3.org/1999/xlink" width="500" zoomAndPan="magnify" viewBox="0 0 375 374.999991" height="500" preserveAspectRatio="xMidYMid meet" version="1.0"><defs><clipPath id="4d5c81767a"><path d="M 4.464844 4.464844 L 370.464844 4.464844 L 370.464844 370.464844 L 4.464844 370.464844 Z M 4.464844 4.464844 " clip-rule="nonzero"/></clipPath></defs><g clip-path="url(#4d5c81767a)"><path fill="#3a5a40" d="M 187.5 4.464844 C 184.503906 4.464844 181.511719 4.539062 178.519531 4.683594 C 175.527344 4.832031 172.539062 5.050781 169.558594 5.34375 C 166.578125 5.640625 163.605469 6.003906 160.644531 6.445312 C 157.679688 6.886719 154.730469 7.398438 151.792969 7.980469 C 148.851562 8.566406 145.929688 9.222656 143.027344 9.949219 C 140.121094 10.675781 137.234375 11.476562 134.367188 12.347656 C 131.5 13.214844 128.65625 14.15625 125.835938 15.164062 C 123.015625 16.171875 120.222656 17.25 117.453125 18.398438 C 114.6875 19.542969 111.949219 20.757812 109.242188 22.039062 C 106.535156 23.320312 103.859375 24.664062 101.21875 26.078125 C 98.574219 27.488281 95.96875 28.964844 93.402344 30.503906 C 90.832031 32.046875 88.300781 33.648438 85.808594 35.3125 C 83.320312 36.976562 80.871094 38.699219 78.464844 40.484375 C 76.058594 42.269531 73.699219 44.109375 71.382812 46.011719 C 69.066406 47.910156 66.800781 49.867188 64.582031 51.878906 C 62.359375 53.890625 60.191406 55.957031 58.074219 58.074219 C 55.957031 60.191406 53.890625 62.359375 51.878906 64.582031 C 49.867188 66.800781 47.910156 69.066406 46.011719 71.382812 C 44.109375 73.699219 42.269531 76.058594 40.484375 78.464844 C 38.699219 80.871094 36.976562 83.320312 35.3125 85.808594 C 33.648438 88.300781 32.046875 90.832031 30.503906 93.402344 C 28.964844 95.96875 27.488281 98.574219 26.078125 101.21875 C 24.664062 103.859375 23.320312 106.535156 22.039062 109.242188 C 20.757812 111.949219 19.542969 114.6875 18.398438 117.453125 C 17.25 120.222656 16.171875 123.015625 15.164062 125.835938 C 14.15625 128.65625 13.214844 131.5 12.347656 134.367188 C 11.476562 137.234375 10.675781 140.121094 9.949219 143.027344 C 9.222656 145.929688 8.566406 148.851562 7.980469 151.792969 C 7.398438 154.730469 6.886719 157.679688 6.445312 160.644531 C 6.003906 163.605469 5.640625 166.578125 5.34375 169.558594 C 5.050781 172.539062 4.832031 175.527344 4.683594 178.519531 C 4.539062 181.511719 4.464844 184.503906 4.464844 187.5 C 4.464844 190.496094 4.539062 193.488281 4.683594 196.480469 C 4.832031 199.472656 5.050781 202.457031 5.34375 205.441406 C 5.640625 208.421875 6.003906 211.394531 6.445312 214.355469 C 6.886719 217.320312 7.398438 220.269531 7.980469 223.207031 C 8.566406 226.144531 9.222656 229.066406 9.949219 231.972656 C 10.675781 234.878906 11.476562 237.765625 12.347656 240.632812 C 13.214844 243.5 14.15625 246.339844 15.164062 249.164062 C 16.171875 251.984375 17.25 254.777344 18.398438 257.542969 C 19.542969 260.3125 20.757812 263.050781 22.039062 265.757812 C 23.320312 268.464844 24.664062 271.140625 26.078125 273.78125 C 27.488281 276.421875 28.964844 279.027344 30.503906 281.597656 C 32.046875 284.167969 33.648438 286.699219 35.3125 289.1875 C 36.976562 291.679688 38.699219 294.128906 40.484375 296.535156 C 42.269531 298.9375 44.109375 301.300781 46.011719 303.617188 C 47.910156 305.929688 49.867188 308.199219 51.878906 310.417969 C 53.890625 312.636719 55.957031 314.808594 58.074219 316.925781 C 60.191406 319.042969 62.359375 321.109375 64.582031 323.121094 C 66.800781 325.132812 69.066406 327.085938 71.382812 328.988281 C 73.699219 330.886719 76.058594 332.730469 78.464844 334.515625 C 80.871094 336.300781 83.320312 338.023438 85.808594 339.6875 C 88.300781 341.351562 90.832031 342.953125 93.402344 344.492188 C 95.96875 346.035156 98.574219 347.511719 101.21875 348.921875 C 103.859375 350.335938 106.535156 351.679688 109.242188 352.960938 C 111.949219 354.242188 114.6875 355.457031 117.453125 356.601562 C 120.222656 357.75 123.015625 358.824219 125.835938 359.835938 C 128.65625 360.84375 131.5 361.785156 134.367188 362.652344 C 137.234375 363.523438 140.121094 364.320312 143.027344 365.050781 C 145.929688 365.777344 148.851562 366.433594 151.792969 367.019531 C 154.730469 367.601562 157.679688 368.113281 160.644531 368.554688 C 163.605469 368.992188 166.578125 369.359375 169.558594 369.652344 C 172.539062 369.945312 175.527344 370.167969 178.519531 370.3125 C 181.511719 370.460938 184.503906 370.535156 187.5 370.535156 C 190.496094 370.535156 193.488281 370.460938 196.480469 370.3125 C 199.472656 370.167969 202.457031 369.945312 205.441406 369.652344 C 208.421875 369.359375 211.394531 368.992188 214.355469 368.554688 C 217.320312 368.113281 220.269531 367.601562 223.207031 367.015625 C 226.144531 366.433594 229.066406 365.777344 231.972656 365.050781 C 234.878906 364.320312 237.765625 363.523438 240.632812 362.652344 C 243.5 361.785156 246.339844 360.84375 249.164062 359.835938 C 251.984375 358.824219 254.777344 357.75 257.542969 356.601562 C 260.3125 355.457031 263.050781 354.242188 265.757812 352.960938 C 268.464844 351.679688 271.140625 350.335938 273.78125 348.921875 C 276.421875 347.511719 279.027344 346.035156 281.597656 344.492188 C 284.167969 342.953125 286.699219 341.351562 289.1875 339.6875 C 291.679688 338.023438 294.128906 336.300781 296.535156 334.515625 C 298.9375 332.730469 301.300781 330.886719 303.617188 328.988281 C 305.929688 327.085938 308.199219 325.132812 310.417969 323.121094 C 312.636719 321.109375 314.808594 319.042969 316.925781 316.925781 C 319.042969 314.808594 321.109375 312.636719 323.121094 310.417969 C 325.132812 308.199219 327.085938 305.929688 328.988281 303.617188 C 330.886719 301.300781 332.730469 298.9375 334.515625 296.535156 C 336.300781 294.128906 338.023438 291.679688 339.6875 289.1875 C 341.351562 286.699219 342.953125 284.167969 344.492188 281.597656 C 346.035156 279.027344 347.511719 276.421875 348.921875 273.78125 C 350.335938 271.140625 351.679688 268.464844 352.960938 265.757812 C 354.242188 263.050781 355.457031 260.3125 356.601562 257.542969 C 357.75 254.777344 358.824219 251.984375 359.835938 249.164062 C 360.84375 246.339844 361.785156 243.5 362.652344 240.632812 C 363.523438 237.765625 364.320312 234.878906 365.050781 231.972656 C 365.777344 229.066406 366.433594 226.144531 367.019531 223.207031 C 367.601562 220.269531 368.113281 217.320312 368.554688 214.355469 C 368.992188 211.394531 369.359375 208.421875 369.652344 205.441406 C 369.945312 202.457031 370.167969 199.472656 370.3125 196.480469 C 370.460938 193.488281 370.535156 190.496094 370.535156 187.5 C 370.535156 184.503906 370.460938 181.511719 370.3125 178.519531 C 370.164062 175.527344 369.945312 172.539062 369.652344 169.558594 C 369.355469 166.578125 368.992188 163.605469 368.550781 160.644531 C 368.109375 157.679688 367.597656 154.730469 367.015625 151.792969 C 366.429688 148.855469 365.773438 145.933594 365.042969 143.027344 C 364.316406 140.121094 363.519531 137.234375 362.648438 134.371094 C 361.777344 131.503906 360.839844 128.660156 359.828125 125.839844 C 358.820312 123.019531 357.742188 120.226562 356.59375 117.457031 C 355.449219 114.691406 354.234375 111.953125 352.953125 109.246094 C 351.675781 106.539062 350.328125 103.863281 348.914062 101.222656 C 347.503906 98.582031 346.027344 95.976562 344.488281 93.40625 C 342.945312 90.835938 341.34375 88.304688 339.679688 85.816406 C 338.015625 83.324219 336.292969 80.878906 334.507812 78.472656 C 332.722656 76.066406 330.878906 73.703125 328.980469 71.390625 C 327.082031 69.074219 325.125 66.804688 323.113281 64.585938 C 321.101562 62.367188 319.035156 60.199219 316.917969 58.082031 C 314.800781 55.960938 312.632812 53.898438 310.410156 51.886719 C 308.191406 49.875 305.925781 47.917969 303.609375 46.019531 C 301.292969 44.117188 298.933594 42.277344 296.527344 40.492188 C 294.121094 38.707031 291.671875 36.984375 289.183594 35.316406 C 286.691406 33.652344 284.164062 32.050781 281.59375 30.511719 C 279.023438 28.972656 276.417969 27.496094 273.777344 26.082031 C 271.136719 24.671875 268.460938 23.324219 265.753906 22.042969 C 263.046875 20.761719 260.308594 19.550781 257.539062 18.402344 C 254.773438 17.257812 251.980469 16.179688 249.160156 15.167969 C 246.339844 14.160156 243.496094 13.21875 240.628906 12.351562 C 237.761719 11.480469 234.875 10.683594 231.972656 9.953125 C 229.066406 9.226562 226.144531 8.570312 223.207031 7.984375 C 220.269531 7.402344 217.316406 6.886719 214.355469 6.449219 C 211.390625 6.007812 208.421875 5.640625 205.4375 5.347656 C 202.457031 5.054688 199.472656 4.832031 196.480469 4.6875 C 193.488281 4.539062 190.496094 4.464844 187.5 4.464844 Z M 246.644531 139.28125 C 246.644531 141.21875 246.546875 143.152344 246.359375 145.078125 C 246.167969 147.007812 245.882812 148.917969 245.507812 150.820312 C 245.128906 152.71875 244.660156 154.597656 244.097656 156.449219 C 243.535156 158.304688 242.882812 160.125 242.140625 161.914062 C 241.398438 163.703125 240.570312 165.453125 239.660156 167.160156 C 238.746094 168.871094 237.75 170.527344 236.675781 172.140625 C 235.597656 173.75 234.445312 175.304688 233.21875 176.800781 C 231.988281 178.296875 230.691406 179.730469 229.320312 181.101562 C 227.949219 182.472656 226.515625 183.769531 225.019531 185 C 223.523438 186.226562 221.96875 187.382812 220.359375 188.457031 C 218.746094 189.53125 217.085938 190.527344 215.378906 191.441406 C 213.671875 192.355469 211.921875 193.179688 210.132812 193.921875 C 208.34375 194.664062 206.519531 195.316406 204.667969 195.878906 C 202.8125 196.441406 200.9375 196.910156 199.039062 197.289062 C 197.136719 197.664062 195.222656 197.949219 193.296875 198.140625 C 191.367188 198.328125 189.4375 198.425781 187.5 198.425781 C 185.5625 198.425781 183.628906 198.328125 181.703125 198.140625 C 179.773438 197.949219 177.859375 197.664062 175.960938 197.289062 C 174.0625 196.910156 172.183594 196.441406 170.332031 195.878906 C 168.476562 195.316406 166.65625 194.664062 164.867188 193.921875 C 163.078125 193.179688 161.328125 192.355469 159.621094 191.441406 C 157.910156 190.527344 156.25 189.535156 154.640625 188.457031 C 153.03125 187.382812 151.476562 186.226562 149.980469 185 C 148.480469 183.769531 147.046875 182.472656 145.679688 181.101562 C 144.308594 179.730469 143.007812 178.296875 141.78125 176.800781 C 140.550781 175.304688 139.398438 173.75 138.324219 172.140625 C 137.246094 170.527344 136.253906 168.871094 135.339844 167.160156 C 134.425781 165.453125 133.597656 163.703125 132.859375 161.914062 C 132.117188 160.125 131.464844 158.304688 130.902344 156.449219 C 130.339844 154.597656 129.871094 152.71875 129.492188 150.820312 C 129.113281 148.917969 128.832031 147.007812 128.640625 145.078125 C 128.449219 143.152344 128.355469 141.21875 128.355469 139.28125 C 131.617188 60.863281 243.382812 60.863281 246.644531 139.28125 Z M 298.0625 273.183594 C 297.304688 274.777344 296.433594 276.308594 295.457031 277.78125 C 294.476562 279.253906 293.402344 280.648438 292.226562 281.96875 C 291.050781 283.289062 289.789062 284.519531 288.441406 285.660156 C 287.089844 286.800781 285.667969 287.839844 284.171875 288.78125 C 282.675781 289.71875 281.121094 290.546875 279.507812 291.269531 C 277.894531 291.988281 276.238281 292.589844 274.539062 293.074219 C 272.839844 293.5625 271.113281 293.925781 269.363281 294.167969 C 267.613281 294.40625 265.855469 294.523438 264.089844 294.519531 L 110.910156 294.519531 C 109.140625 294.515625 107.382812 294.390625 105.628906 294.140625 C 103.878906 293.890625 102.152344 293.519531 100.453125 293.027344 C 98.753906 292.535156 97.097656 291.925781 95.484375 291.203125 C 93.871094 290.476562 92.316406 289.644531 90.816406 288.703125 C 89.320312 287.757812 87.898438 286.714844 86.546875 285.574219 C 85.195312 284.429688 83.929688 283.199219 82.753906 281.878906 C 81.574219 280.558594 80.496094 279.164062 79.515625 277.691406 C 78.53125 276.222656 77.660156 274.6875 76.890625 273.09375 C 76.125 271.5 75.472656 269.859375 74.9375 268.171875 C 74.398438 266.488281 73.984375 264.773438 73.6875 263.027344 C 73.394531 261.285156 73.21875 259.527344 73.171875 257.761719 C 73.121094 255.992188 73.195312 254.226562 73.394531 252.46875 C 73.59375 250.710938 73.914062 248.976562 74.355469 247.265625 C 74.796875 245.550781 75.355469 243.878906 76.03125 242.242188 C 76.707031 240.609375 77.496094 239.027344 78.394531 237.503906 C 79.292969 235.980469 80.292969 234.527344 81.394531 233.144531 C 85.28125 228.445312 89.492188 224.058594 94.027344 219.984375 C 98.558594 215.90625 103.367188 212.1875 108.449219 208.820312 C 113.53125 205.453125 118.832031 202.476562 124.355469 199.890625 C 129.875 197.304688 135.558594 195.136719 141.398438 193.390625 C 144.570312 196.132812 147.960938 198.570312 151.566406 200.707031 C 155.175781 202.839844 158.945312 204.636719 162.875 206.097656 C 166.804688 207.558594 170.835938 208.65625 174.960938 209.394531 C 179.089844 210.132812 183.25 210.5 187.441406 210.492188 L 187.671875 210.492188 C 191.855469 210.496094 196.003906 210.125 200.121094 209.382812 C 204.238281 208.644531 208.257812 207.542969 212.179688 206.082031 C 216.097656 204.621094 219.859375 202.828125 223.457031 200.695312 C 227.054688 198.5625 230.4375 196.128906 233.601562 193.390625 C 239.441406 195.136719 245.125 197.304688 250.644531 199.890625 C 256.164062 202.476562 261.46875 205.453125 266.550781 208.820312 C 271.632812 212.1875 276.441406 215.90625 280.972656 219.984375 C 285.507812 224.058594 289.714844 228.445312 293.601562 233.144531 C 294.714844 234.527344 295.726562 235.980469 296.632812 237.507812 C 297.539062 239.03125 298.335938 240.613281 299.015625 242.253906 C 299.699219 243.890625 300.261719 245.570312 300.707031 247.289062 C 301.148438 249.007812 301.46875 250.75 301.667969 252.511719 C 301.863281 254.277344 301.933594 256.046875 301.878906 257.820312 C 301.824219 259.59375 301.644531 261.355469 301.339844 263.105469 C 301.035156 264.855469 300.609375 266.570312 300.058594 268.261719 C 299.511719 269.949219 298.847656 271.589844 298.0625 273.183594 Z M 298.0625 273.183594 " fill-opacity="1" fill-rule="nonzero"/></g></svg>